<?xml version="1.0" encoding="UTF-8" standalone="no"?>
<!DOCTYPE svg PUBLIC "-//W3C//DTD SVG 1.1//EN"
 "http://www.w3.org/Graphics/SVG/1.1/DTD/svg11.dtd">
<!-- Generated by graphviz version 2.50.0 (0)
 -->
<!-- Title: aaa Pages: 1 -->
<svg width="712pt" height="692pt"
 viewBox="0.00 0.00 711.99 692.00" xmlns="http://www.w3.org/2000/svg" xmlns:xlink="http://www.w3.org/1999/xlink">
<g id="graph0" class="graph" transform="scale(1 1) rotate(0) translate(4 688)">
<title>aaa</title>
<polygon fill="white" stroke="transparent" points="-4,4 -4,-688 707.99,-688 707.99,4 -4,4"/>
<!-- 0 -->
<g id="node1" class="node">
<title>0</title>
<ellipse fill="red" stroke="black" cx="194.15" cy="-666" rx="40.09" ry="18"/>
<text text-anchor="middle" x="194.15" y="-662.3" font-family="Times,serif" font-size="14.00">0 00 8</text>
</g>
<!-- 30 -->
<g id="node2" class="node">
<title>30</title>
<ellipse fill="purple" stroke="black" cx="46.15" cy="-378" rx="46.29" ry="18"/>
<text text-anchor="middle" x="46.15" y="-374.3" font-family="Times,serif" font-size="14.00">30 57 4</text>
</g>
<!-- 0&#45;&gt;30 -->
<g id="edge1" class="edge">
<title>0&#45;&gt;30</title>
<path fill="none" stroke="green" d="M185.55,-648.39C160.88,-600.72 89.72,-463.19 59.73,-405.24"/>
<polygon fill="green" stroke="green" points="62.66,-403.29 54.95,-396.02 56.44,-406.51 62.66,-403.29"/>
</g>
<!-- 8 -->
<g id="node3" class="node">
<title>8</title>
<ellipse fill="red" stroke="black" cx="277.15" cy="-594" rx="46.29" ry="18"/>
<text text-anchor="middle" x="277.15" y="-590.3" font-family="Times,serif" font-size="14.00">8 0d 12</text>
</g>
<!-- 0&#45;&gt;8 -->
<g id="edge2" class="edge">
<title>0&#45;&gt;8</title>
<path fill="none" stroke="red" d="M212.16,-649.81C223.42,-640.31 238.13,-627.91 250.7,-617.3"/>
<polygon fill="red" stroke="red" points="253.21,-619.77 258.6,-610.64 248.7,-614.42 253.21,-619.77"/>
</g>
<!-- 34 -->
<g id="node4" class="node">
<title>34</title>
<ellipse fill="yellow" stroke="black" cx="536.15" cy="-522" rx="115.08" ry="18"/>
<text text-anchor="middle" x="536.15" y="-518.3" font-family="Times,serif" font-size="14.00">modifierowner 34 5c 6</text>
</g>
<!-- 8&#45;&gt;34 -->
<g id="edge3" class="edge">
<title>8&#45;&gt;34</title>
<path fill="none" stroke="green" d="M313.98,-583.05C354.83,-572 421.51,-553.98 471.18,-540.56"/>
<polygon fill="green" stroke="green" points="472.14,-543.93 480.88,-537.94 470.31,-537.17 472.14,-543.93"/>
</g>
<!-- 20 -->
<g id="node5" class="node">
<title>20</title>
<ellipse fill="red" stroke="black" cx="277.15" cy="-522" rx="46.29" ry="18"/>
<text text-anchor="middle" x="277.15" y="-518.3" font-family="Times,serif" font-size="14.00">20 41 5</text>
</g>
<!-- 8&#45;&gt;20 -->
<g id="edge4" class="edge">
<title>8&#45;&gt;20</title>
<path fill="none" stroke="red" d="M277.15,-575.7C277.15,-567.98 277.15,-558.71 277.15,-550.11"/>
<polygon fill="red" stroke="red" points="280.65,-550.1 277.15,-540.1 273.65,-550.1 280.65,-550.1"/>
</g>
<!-- 43 -->
<g id="node9" class="node">
<title>43</title>
<ellipse fill="red" stroke="black" cx="646.15" cy="-450" rx="46.29" ry="18"/>
<text text-anchor="middle" x="646.15" y="-446.3" font-family="Times,serif" font-size="14.00">43 68 5</text>
</g>
<!-- 34&#45;&gt;43 -->
<g id="edge9" class="edge">
<title>34&#45;&gt;43</title>
<path fill="none" stroke="green" d="M562.21,-504.41C577.76,-494.52 597.62,-481.88 614.11,-471.38"/>
<polygon fill="green" stroke="green" points="616.33,-474.13 622.88,-465.8 612.57,-468.22 616.33,-474.13"/>
</g>
<!-- 40 -->
<g id="node10" class="node">
<title>40</title>
<ellipse fill="purple" stroke="black" cx="536.15" cy="-450" rx="46.29" ry="18"/>
<text text-anchor="middle" x="536.15" y="-446.3" font-family="Times,serif" font-size="14.00">40 64 3</text>
</g>
<!-- 34&#45;&gt;40 -->
<g id="edge10" class="edge">
<title>34&#45;&gt;40</title>
<path fill="none" stroke="red" d="M536.15,-503.7C536.15,-495.98 536.15,-486.71 536.15,-478.11"/>
<polygon fill="red" stroke="red" points="539.65,-478.1 536.15,-468.1 532.65,-478.1 539.65,-478.1"/>
</g>
<!-- 50 -->
<g id="node6" class="node">
<title>50</title>
<ellipse fill="yellow" stroke="black" cx="343.15" cy="-450" rx="129.18" ry="18"/>
<text text-anchor="middle" x="343.15" y="-446.3" font-family="Times,serif" font-size="14.00">withdrawBalance 50 73 6</text>
</g>
<!-- 20&#45;&gt;50 -->
<g id="edge5" class="edge">
<title>20&#45;&gt;50</title>
<path fill="none" stroke="green" d="M292.45,-504.76C300.63,-496.1 310.86,-485.25 319.98,-475.57"/>
<polygon fill="green" stroke="green" points="322.69,-477.8 327,-468.12 317.59,-473 322.69,-477.8"/>
</g>
<!-- 25 -->
<g id="node7" class="node">
<title>25</title>
<ellipse fill="red" stroke="black" cx="151.15" cy="-450" rx="44.69" ry="18"/>
<text text-anchor="middle" x="151.15" y="-446.3" font-family="Times,serif" font-size="14.00">25 4c 5</text>
</g>
<!-- 20&#45;&gt;25 -->
<g id="edge6" class="edge">
<title>20&#45;&gt;25</title>
<path fill="none" stroke="red" d="M251.65,-506.83C232.61,-496.26 206.38,-481.68 185.49,-470.08"/>
<polygon fill="red" stroke="red" points="187.05,-466.94 176.61,-465.14 183.65,-473.06 187.05,-466.94"/>
</g>
<!-- 59 -->
<g id="node13" class="node">
<title>59</title>
<ellipse fill="red" stroke="black" cx="343.15" cy="-378" rx="43.59" ry="18"/>
<text text-anchor="middle" x="343.15" y="-374.3" font-family="Times,serif" font-size="14.00">59 7f 5</text>
</g>
<!-- 50&#45;&gt;59 -->
<g id="edge12" class="edge">
<title>50&#45;&gt;59</title>
<path fill="none" stroke="green" d="M343.15,-431.7C343.15,-423.98 343.15,-414.71 343.15,-406.11"/>
<polygon fill="green" stroke="green" points="346.65,-406.1 343.15,-396.1 339.65,-406.1 346.65,-406.1"/>
</g>
<!-- 56 -->
<g id="node14" class="node">
<title>56</title>
<ellipse fill="purple" stroke="black" cx="451.15" cy="-378" rx="46.29" ry="18"/>
<text text-anchor="middle" x="451.15" y="-374.3" font-family="Times,serif" font-size="14.00">56 7b 3</text>
</g>
<!-- 50&#45;&gt;56 -->
<g id="edge13" class="edge">
<title>50&#45;&gt;56</title>
<path fill="none" stroke="red" d="M369.01,-432.23C384.28,-422.34 403.72,-409.74 419.85,-399.29"/>
<polygon fill="red" stroke="red" points="421.93,-402.11 428.42,-393.73 418.12,-396.23 421.93,-402.11"/>
</g>
<!-- 25&#45;&gt;30 -->
<g id="edge8" class="edge">
<title>25&#45;&gt;30</title>
<path fill="none" stroke="red" d="M128.88,-434.15C113.7,-424.04 93.42,-410.52 76.73,-399.39"/>
<polygon fill="red" stroke="red" points="78.64,-396.46 68.38,-393.82 74.76,-402.28 78.64,-396.46"/>
</g>
<!-- 66 -->
<g id="node8" class="node">
<title>66</title>
<ellipse fill="yellow" stroke="black" cx="196.15" cy="-378" rx="85.59" ry="18"/>
<text text-anchor="middle" x="196.15" y="-374.3" font-family="Times,serif" font-size="14.00">transfer 66 8a 6</text>
</g>
<!-- 25&#45;&gt;66 -->
<g id="edge7" class="edge">
<title>25&#45;&gt;66</title>
<path fill="none" stroke="green" d="M161.81,-432.41C167.17,-424.08 173.78,-413.8 179.76,-404.49"/>
<polygon fill="green" stroke="green" points="182.78,-406.26 185.25,-395.96 176.89,-402.48 182.78,-406.26"/>
</g>
<!-- 75 -->
<g id="node17" class="node">
<title>75</title>
<ellipse fill="red" stroke="black" cx="90.15" cy="-306" rx="51.99" ry="18"/>
<text text-anchor="middle" x="90.15" y="-302.3" font-family="Times,serif" font-size="14.00">75 96 36</text>
</g>
<!-- 66&#45;&gt;75 -->
<g id="edge15" class="edge">
<title>66&#45;&gt;75</title>
<path fill="none" stroke="green" d="M171.29,-360.59C156.53,-350.84 137.65,-338.37 121.83,-327.92"/>
<polygon fill="green" stroke="green" points="123.66,-324.94 113.39,-322.35 119.81,-330.78 123.66,-324.94"/>
</g>
<!-- 72 -->
<g id="node18" class="node">
<title>72</title>
<ellipse fill="purple" stroke="black" cx="206.15" cy="-306" rx="46.29" ry="18"/>
<text text-anchor="middle" x="206.15" y="-302.3" font-family="Times,serif" font-size="14.00">72 92 3</text>
</g>
<!-- 66&#45;&gt;72 -->
<g id="edge16" class="edge">
<title>66&#45;&gt;72</title>
<path fill="none" stroke="red" d="M198.62,-359.7C199.72,-351.98 201.04,-342.71 202.27,-334.11"/>
<polygon fill="red" stroke="red" points="205.75,-334.5 203.7,-324.1 198.82,-333.51 205.75,-334.5"/>
</g>
<!-- 113 -->
<g id="node11" class="node">
<title>113</title>
<ellipse fill="red" stroke="black" cx="646.15" cy="-378" rx="57.69" ry="18"/>
<text text-anchor="middle" x="646.15" y="-374.3" font-family="Times,serif" font-size="14.00">113 d7 23</text>
</g>
<!-- 43&#45;&gt;113 -->
<g id="edge11" class="edge">
<title>43&#45;&gt;113</title>
<path fill="none" stroke="black" d="M646.15,-431.7C646.15,-423.98 646.15,-414.71 646.15,-406.11"/>
<polygon fill="black" stroke="black" points="649.65,-406.1 646.15,-396.1 642.65,-406.1 649.65,-406.1"/>
</g>
<!-- 48 -->
<g id="node12" class="node">
<title>48</title>
<ellipse fill="purple" stroke="black" cx="646.15" cy="-306" rx="46.29" ry="18"/>
<text text-anchor="middle" x="646.15" y="-302.3" font-family="Times,serif" font-size="14.00">48 71 2</text>
</g>
<!-- 113&#45;&gt;48 -->
<g id="edge18" class="edge">
<title>113&#45;&gt;48</title>
<path fill="none" stroke="black" d="M646.15,-359.7C646.15,-351.98 646.15,-342.71 646.15,-334.11"/>
<polygon fill="black" stroke="black" points="649.65,-334.1 646.15,-324.1 642.65,-334.1 649.65,-334.1"/>
</g>
<!-- 136 -->
<g id="node15" class="node">
<title>136</title>
<ellipse fill="red" stroke="black" cx="343.15" cy="-306" rx="63.09" ry="18"/>
<text text-anchor="middle" x="343.15" y="-302.3" font-family="Times,serif" font-size="14.00">136 11a 23</text>
</g>
<!-- 59&#45;&gt;136 -->
<g id="edge14" class="edge">
<title>59&#45;&gt;136</title>
<path fill="none" stroke="black" d="M343.15,-359.7C343.15,-351.98 343.15,-342.71 343.15,-334.11"/>
<polygon fill="black" stroke="black" points="346.65,-334.1 343.15,-324.1 339.65,-334.1 346.65,-334.1"/>
</g>
<!-- 162 -->
<g id="node21" class="node">
<title>162</title>
<ellipse fill="red" stroke="black" cx="391.15" cy="-234" rx="63.89" ry="18"/>
<text text-anchor="middle" x="391.15" y="-230.3" font-family="Times,serif" font-size="14.00">162 178 47</text>
</g>
<!-- 136&#45;&gt;162 -->
<g id="edge19" class="edge">
<title>136&#45;&gt;162</title>
<path fill="none" stroke="green" d="M354.77,-288.05C360.48,-279.71 367.5,-269.49 373.83,-260.25"/>
<polygon fill="green" stroke="green" points="376.86,-262.02 379.63,-251.79 371.09,-258.06 376.86,-262.02"/>
</g>
<!-- 159 -->
<g id="node22" class="node">
<title>159</title>
<ellipse fill="purple" stroke="black" cx="251.15" cy="-234" rx="57.69" ry="18"/>
<text text-anchor="middle" x="251.15" y="-230.3" font-family="Times,serif" font-size="14.00">159 174 3</text>
</g>
<!-- 136&#45;&gt;159 -->
<g id="edge20" class="edge">
<title>136&#45;&gt;159</title>
<path fill="none" stroke="red" d="M321.81,-288.76C309.41,-279.33 293.62,-267.32 280.12,-257.04"/>
<polygon fill="red" stroke="red" points="282.13,-254.18 272.05,-250.91 277.89,-259.75 282.13,-254.18"/>
</g>
<!-- 64 -->
<g id="node16" class="node">
<title>64</title>
<ellipse fill="purple" stroke="black" cx="334.15" cy="-90" rx="46.29" ry="18"/>
<text text-anchor="middle" x="334.15" y="-86.3" font-family="Times,serif" font-size="14.00">64 88 2</text>
</g>
<!-- 238 -->
<g id="node19" class="node">
<title>238</title>
<ellipse fill="red" stroke="black" cx="90.15" cy="-234" rx="63.89" ry="18"/>
<text text-anchor="middle" x="90.15" y="-230.3" font-family="Times,serif" font-size="14.00">238 237 26</text>
</g>
<!-- 75&#45;&gt;238 -->
<g id="edge17" class="edge">
<title>75&#45;&gt;238</title>
<path fill="none" stroke="black" d="M90.15,-287.7C90.15,-279.98 90.15,-270.71 90.15,-262.11"/>
<polygon fill="black" stroke="black" points="93.65,-262.1 90.15,-252.1 86.65,-262.1 93.65,-262.1"/>
</g>
<!-- 326 -->
<g id="node25" class="node">
<title>326</title>
<ellipse fill="red" stroke="black" cx="93.15" cy="-90" rx="57.69" ry="18"/>
<text text-anchor="middle" x="93.15" y="-86.3" font-family="Times,serif" font-size="14.00">326 317 4</text>
</g>
<!-- 238&#45;&gt;326 -->
<g id="edge24" class="edge">
<title>238&#45;&gt;326</title>
<path fill="none" stroke="green" d="M80.6,-215.93C75.51,-205.82 69.76,-192.57 67.15,-180 63.89,-164.33 63.53,-159.59 67.15,-144 69.3,-134.72 73.32,-125.18 77.57,-116.81"/>
<polygon fill="green" stroke="green" points="80.7,-118.38 82.37,-107.92 74.54,-115.05 80.7,-118.38"/>
</g>
<!-- 264 -->
<g id="node26" class="node">
<title>264</title>
<ellipse fill="red" stroke="black" cx="137.15" cy="-162" rx="61.19" ry="18"/>
<text text-anchor="middle" x="137.15" y="-158.3" font-family="Times,serif" font-size="14.00">264 27f 62</text>
</g>
<!-- 238&#45;&gt;264 -->
<g id="edge25" class="edge">
<title>238&#45;&gt;264</title>
<path fill="none" stroke="red" d="M101.52,-216.05C107.12,-207.71 113.99,-197.49 120.19,-188.25"/>
<polygon fill="red" stroke="red" points="123.2,-190.04 125.87,-179.79 117.39,-186.14 123.2,-190.04"/>
</g>
<!-- 111 -->
<g id="node20" class="node">
<title>111</title>
<ellipse fill="purple" stroke="black" cx="93.15" cy="-18" rx="51.99" ry="18"/>
<text text-anchor="middle" x="93.15" y="-14.3" font-family="Times,serif" font-size="14.00">111 d5 2</text>
</g>
<!-- 212 -->
<g id="node23" class="node">
<title>212</title>
<ellipse fill="red" stroke="black" cx="334.15" cy="-162" rx="61.19" ry="18"/>
<text text-anchor="middle" x="334.15" y="-158.3" font-family="Times,serif" font-size="14.00">212 1f0 26</text>
</g>
<!-- 162&#45;&gt;212 -->
<g id="edge21" class="edge">
<title>162&#45;&gt;212</title>
<path fill="none" stroke="green" d="M377.35,-216.05C370.42,-207.54 361.89,-197.07 354.24,-187.68"/>
<polygon fill="green" stroke="green" points="356.85,-185.33 347.82,-179.79 351.42,-189.75 356.85,-185.33"/>
</g>
<!-- 209 -->
<g id="node24" class="node">
<title>209</title>
<ellipse fill="purple" stroke="black" cx="469.15" cy="-162" rx="55.79" ry="18"/>
<text text-anchor="middle" x="469.15" y="-158.3" font-family="Times,serif" font-size="14.00">209 1ec 3</text>
</g>
<!-- 162&#45;&gt;209 -->
<g id="edge22" class="edge">
<title>162&#45;&gt;209</title>
<path fill="none" stroke="red" d="M409.63,-216.41C419.71,-207.37 432.34,-196.03 443.37,-186.13"/>
<polygon fill="red" stroke="red" points="445.96,-188.51 451.06,-179.23 441.28,-183.3 445.96,-188.51"/>
</g>
<!-- 212&#45;&gt;64 -->
<g id="edge23" class="edge">
<title>212&#45;&gt;64</title>
<path fill="none" stroke="black" d="M334.15,-143.7C334.15,-135.98 334.15,-126.71 334.15,-118.11"/>
<polygon fill="black" stroke="black" points="337.65,-118.1 334.15,-108.1 330.65,-118.1 337.65,-118.1"/>
</g>
<!-- 326&#45;&gt;111 -->
<g id="edge27" class="edge">
<title>326&#45;&gt;111</title>
<path fill="none" stroke="black" d="M93.15,-71.7C93.15,-63.98 93.15,-54.71 93.15,-46.11"/>
<polygon fill="black" stroke="black" points="96.65,-46.1 93.15,-36.1 89.65,-46.1 96.65,-46.1"/>
</g>
<!-- 264&#45;&gt;326 -->
<g id="edge26" class="edge">
<title>264&#45;&gt;326</title>
<path fill="none" stroke="black" d="M126.49,-144.05C121.31,-135.8 114.96,-125.7 109.2,-116.54"/>
<polygon fill="black" stroke="black" points="111.98,-114.39 103.7,-107.79 106.06,-118.12 111.98,-114.39"/>
</g>
</g>
</svg>
